<svg xmlns="http://www.w3.org/2000/svg"
    xmlns:xlink="http://www.w3.org/1999/xlink" width="512" height="512" viewBox="0 0 512 512">
    <title>Logo</title>
    <path
        d="M389.948 64.0046C392.709 64.2823 397.69 63.8548 400.497 63.4835L399.997 63.5197C401.382 63.1708 405.312 62.8686 406.948 62.6492C407.975 62.5116 409.718 63.0573 411.23 62.658L409.539 62.3907C410.949 61.726 421.024 62.218 423.116 62.1989C426.996 62.1239 430.911 61.8067 434.784 61.731C437.577 61.6764 439.57 64.4635 442.266 62.5807C452.656 69.051 451.429 75.6234 451.449 86.7549L451.458 102.424L451.456 160.954L451.456 288.129L451.455 330.615C451.453 339.619 451.636 348.812 451.122 357.805C451.01 359.748 450.161 361.645 449.049 363.347C444.524 370.192 438.717 371.928 430.809 371.711C428.68 371.653 425.482 372.451 423.193 372.449C417.503 372.444 412.212 372.562 406.56 373.33C402.487 373.884 398.107 373.66 393.996 374.608C361.981 378.934 330.54 388.648 303.043 405.874C298.19 408.914 293.758 412.065 289.197 415.523C287.662 416.687 284.337 419.823 282.971 420.564C280.251 420.475 273.754 427.179 271.815 429.363C271.28 428.913 271.519 426.662 271.529 425.872C271.64 416.888 271.571 407.857 271.565 398.871L271.552 348.84L271.555 194.443L271.57 156.669C271.572 153.176 271.767 141.109 271.231 138.319C293.029 101.141 328.151 78.6597 369.533 68.2886C376.264 66.6017 383.036 64.8359 389.948 64.0046Z" />
    <path
        d="M61.1833 72.0115C63.705 65.2353 68.0523 62.9663 74.5189 60.6832C79.9549 61.8477 86.0043 60.9229 91.6167 61.3496C88.1378 61.9272 79.6126 61.214 76.8887 61.8423C78.0027 62.3815 93.4023 62.1431 96.1501 62.4493C104.235 63.3502 112.69 63.6403 120.723 65.2171C122.361 64.6622 121.568 64.3647 122.899 64.1448C166.262 71.3674 207.209 90.566 233.363 126.996C241.154 137.848 241.276 137.495 241.278 150.494L241.275 165.177L241.269 216.583L241.265 357.691L241.265 404.015C241.265 413.033 241.079 422.94 241.434 431.902C238.96 429.673 236.625 427.128 234.156 424.981C230.292 421.622 226.137 418.05 222.072 414.95C190.516 390.889 151.872 378.62 112.827 373.918C110.348 373.619 107.643 373.643 105.236 373.304C99.704 372.523 94.4347 372.505 88.8664 372.442C86.4125 372.414 83.711 371.778 81.2247 371.748C74.0866 371.596 70.0805 371.419 65.003 365.842C64.0967 364.846 62.6606 363.653 62.3122 362.301C62.9383 360.767 62.4295 361.68 62.189 360.275C61.8677 358.397 61.5074 356.306 61.5062 354.397C61.499 342.86 61.5013 331.323 61.5 319.786L61.4902 139.651L61.5009 94.05L61.5338 81.0414C61.5381 78.2105 61.7149 74.7199 61.1833 72.0115Z" />
    <path
        d="M62.3122 362.301C60.7068 360.357 60.4347 356.762 60.398 354.301C60.2776 346.213 60.3182 338.118 60.3178 330.028L60.3192 287.672L60.3223 159.46L60.3232 105.188C60.3228 99.1279 59.7985 76.5358 61.1833 72.0115C61.7149 74.7199 61.5381 78.2105 61.5338 81.0414L61.5009 94.05L61.4902 139.651L61.5 319.786C61.5013 331.323 61.499 342.86 61.5062 354.397C61.5074 356.306 61.8677 358.397 62.189 360.275C62.4295 361.68 62.9383 360.767 62.3122 362.301Z" />
    <path
        d="M271.231 138.319C271.767 141.109 271.572 153.176 271.57 156.669L271.555 194.443L271.552 348.84L271.565 398.871C271.571 407.857 271.64 416.888 271.529 425.872C271.519 426.662 271.28 428.913 271.815 429.363C273.754 427.179 280.251 420.475 282.971 420.564C282.534 421.078 279.609 423.384 278.736 424.21C276.03 426.771 273.33 429.731 270.513 432.102C270.328 427.942 270.46 422.669 270.46 418.446L270.458 393.325L270.457 316.565L270.448 202.595C270.445 183.034 270.426 163.446 270.464 143.884C270.468 141.976 270.444 140.058 271.231 138.319Z" />
    <path
        d="M74.5189 60.6832C86.4898 59.0867 100.655 61.8853 112.656 62.6326C116.13 62.849 119.497 63.762 122.899 64.1448C121.568 64.3647 122.361 64.6622 120.723 65.2171C112.69 63.6403 104.235 63.3502 96.1501 62.4493C93.4023 62.1431 78.0027 62.3815 76.8887 61.8423C79.6126 61.214 88.1378 61.9272 91.6167 61.3496C86.0043 60.9229 79.9549 61.8477 74.5189 60.6832Z" />
    <path
        d="M389.948 64.0046C394.076 63.0164 399.397 62.5161 403.658 62.2246C414.971 61.4507 431.74 57.9974 442.266 62.5807C439.57 64.4635 437.577 61.6764 434.784 61.731C430.911 61.8067 426.996 62.1239 423.116 62.1989C421.024 62.218 410.949 61.726 409.539 62.3907L411.23 62.658C409.718 63.0573 407.975 62.5116 406.948 62.6492C405.312 62.8686 401.382 63.1708 399.997 63.5197L400.497 63.4835C397.69 63.8548 392.709 64.2823 389.948 64.0046Z" />
    <path
        d="M0 138.286L0.194588 137.897C3.45054 131.303 4.01159 127.54 11.9328 124.977C16.8946 123.372 25.2482 122.669 30.2283 123.883C31.9404 124.3 31.2055 140.083 31.2039 141.953L31.2071 180.12L31.2056 311.745L31.202 338.291C31.2022 347.629 30.7759 356.736 33.2792 365.684C38.0136 382.607 51.3515 394.614 68.1245 399.053C69.7642 399.487 75.1076 399.591 75.8944 400.18C76.6078 401.056 76.2884 401.022 77.3454 401.14C79.6935 401.401 92.0171 400.691 93.2079 401.53C91.4764 401.525 84.5897 401.156 83.6487 401.917C91.144 402.571 100.63 402.026 108.491 403.423C108.836 403.085 108.721 403.263 108.882 402.922L109.22 403.297C110.638 403.632 111.312 403.308 112.812 403.086L112.902 403.361L112.542 403.64C113.377 404.309 117.117 404.423 118.258 404.26C118.934 404.163 119.838 403.798 120.814 403.708C149.72 407.647 181.516 419.705 204.675 437.478C206.391 438.794 214.312 444.868 215.099 446.536L214.949 446.951C214.794 447.001 214.64 447.05 214.486 447.099C197.751 443.076 180.618 440.569 163.452 439.314C161.151 439.188 158.683 438.681 156.393 438.636C142.464 438.362 128.505 438.671 114.574 438.532C110.209 438.489 107.063 439.101 102.869 439.389C89.0551 440.283 75.2849 441.756 61.5947 443.804C52.6998 445.186 43.8435 446.804 35.0351 448.658C29.6483 449.74 22.5961 451.554 17.2537 451.6C11.5344 451.648 3.89576 446.594 1.80121 441.295C1.34537 440.14 0.582514 437.932 0 436.999L0 138.286Z" />
    <path
        d="M481.62 124.858C486.133 125.214 490.533 125.003 495.047 124.881C496.801 124.834 497.407 125.319 499.08 124.632C505.613 127.1 507.741 129.147 510.662 135.589C511.143 136.643 511.589 137.712 512 138.795L512 436.405C510.13 441.132 509.326 444.111 505.286 447.484C496.971 454.424 486.752 450.676 477.143 448.729C471.646 447.573 466.132 446.502 460.603 445.518C443.727 442.595 426.71 440.558 409.621 439.416C407.047 439.23 403.689 438.629 401.244 438.606C393.026 438.357 384.715 438.695 376.507 438.536C365.07 438.314 354.384 438.566 343.01 439.71C330.518 440.966 318.402 442.596 306.1 445.197C303.83 445.677 297.747 447.297 295.94 447.11C324.891 418.878 365.984 406.069 405.353 401.678C407.641 401.378 410.271 401.595 412.519 401.252C423.016 399.654 434.175 401.459 444.526 398.759C462.295 394.123 476.267 379.488 479.338 361.311C479.556 360.018 479.394 358.609 479.935 357.351C480.801 357.071 480.48 357.322 480.98 356.644C480.973 355.014 481.102 353.379 481.204 351.751L481.258 351.85C481.651 346.125 481.443 338.214 481.442 332.33L481.44 298.625L481.434 184.431L481.431 147.291C481.431 140.098 481.245 131.965 481.62 124.858Z" />
    <path
        d="M480.458 123.63L480.744 123.602C486.871 122.96 493.063 123.308 499.08 124.632C497.407 125.319 496.801 124.834 495.047 124.881C490.533 125.003 486.133 125.214 481.62 124.858C481.245 131.965 481.431 140.098 481.431 147.291L481.434 184.431L481.44 298.625L481.442 332.33C481.443 338.214 481.651 346.125 481.258 351.85L481.204 351.751C481.102 353.379 480.973 355.014 480.98 356.644C480.48 357.322 480.801 357.071 479.935 357.351C480.887 348.412 480.477 336.821 480.477 327.615L480.477 279.047L480.458 123.63Z" />
    <path
        d="M75.8944 400.18C81.417 400.588 86.9172 400.387 92.4515 400.549C94.8725 400.619 97.4245 401.246 99.7522 401.307C106.909 401.494 113.737 402.652 120.814 403.708C119.838 403.798 118.934 404.163 118.258 404.26C117.117 404.423 113.377 404.309 112.542 403.64L112.902 403.361L112.812 403.086C111.312 403.308 110.638 403.632 109.22 403.297L108.882 402.922C108.721 403.263 108.836 403.085 108.491 403.423C100.63 402.026 91.144 402.571 83.6487 401.917C84.5897 401.156 91.4764 401.525 93.2079 401.53C92.0171 400.691 79.6935 401.401 77.3454 401.14C76.2884 401.022 76.6078 401.056 75.8944 400.18Z" />
</svg>
